<?xml version="1.0" encoding="UTF-8" standalone="no"?>
<svg
   xmlns:dc="http://purl.org/dc/elements/1.1/"
   xmlns:cc="http://creativecommons.org/ns#"
   xmlns:rdf="http://www.w3.org/1999/02/22-rdf-syntax-ns#"
   xmlns:svg="http://www.w3.org/2000/svg"
   xmlns="http://www.w3.org/2000/svg"
   xmlns:xlink="http://www.w3.org/1999/xlink"
   xmlns:sodipodi="http://sodipodi.sourceforge.net/DTD/sodipodi-0.dtd"
   xmlns:inkscape="http://www.inkscape.org/namespaces/inkscape"
   viewBox="0 0 412 206"
   version="1.1"
   id="svg396"
   sodipodi:docname="rewards.svg"
   inkscape:version="1.0.2 (e86c8708, 2021-01-15)">
  <metadata
     id="metadata400">
    <rdf:RDF>
      <cc:Work
         rdf:about="">
        <dc:format>image/svg+xml</dc:format>
        <dc:type
           rdf:resource="http://purl.org/dc/dcmitype/StillImage" />
      </cc:Work>
    </rdf:RDF>
  </metadata>
  <sodipodi:namedview
     pagecolor="#ffffff"
     bordercolor="#666666"
     borderopacity="1"
     objecttolerance="10"
     gridtolerance="10"
     guidetolerance="10"
     inkscape:pageopacity="0"
     inkscape:pageshadow="2"
     inkscape:window-width="2560"
     inkscape:window-height="1387"
     id="namedview398"
     showgrid="false"
     inkscape:zoom="2.5558252"
     inkscape:cx="136.55081"
     inkscape:cy="103"
     inkscape:window-x="0"
     inkscape:window-y="25"
     inkscape:window-maximized="1"
     inkscape:current-layer="g394" />
  <defs
     id="defs312">
    <linearGradient
       id="b"
       x1="219.922"
       y1="90.622"
       x2="219.922"
       y2="138.048"
       gradientUnits="userSpaceOnUse">
      <stop
         offset="0"
         stop-color="#fff"
         stop-opacity="0"
         id="stop224" />
      <stop
         offset=".079"
         stop-color="#f4f8fe"
         stop-opacity=".136"
         id="stop226" />
      <stop
         offset=".194"
         stop-color="#e6effe"
         stop-opacity=".306"
         id="stop228" />
      <stop
         offset=".31"
         stop-color="#dbe8fd"
         stop-opacity=".447"
         id="stop230" />
      <stop
         offset=".428"
         stop-color="#d2e2fd"
         stop-opacity=".556"
         id="stop232" />
      <stop
         offset=".545"
         stop-color="#ccdefc"
         stop-opacity=".634"
         id="stop234" />
      <stop
         offset=".664"
         stop-color="#c8dcfc"
         stop-opacity=".681"
         id="stop236" />
      <stop
         offset=".786"
         stop-color="#c7dbfc"
         stop-opacity=".696"
         id="stop238" />
      <stop
         offset="1"
         stop-color="#b3cefa"
         stop-opacity=".942"
         id="stop240" />
    </linearGradient>
    <linearGradient
       id="a"
       x1="220.859"
       y1="108.729"
       x2="242.442"
       y2="108.729"
       gradientUnits="userSpaceOnUse">
      <stop
         offset="0"
         stop-color="#fff"
         stop-opacity="0"
         id="stop243" />
      <stop
         offset="1"
         stop-color="#fcc934"
         id="stop245" />
    </linearGradient>
    <linearGradient
       id="c"
       x1="222.082"
       y1="137.633"
       x2="216.828"
       y2="102.117"
       gradientUnits="userSpaceOnUse">
      <stop
         offset=".315"
         stop-color="#f8f9fb"
         stop-opacity="0"
         id="stop248" />
      <stop
         offset=".534"
         stop-color="#d3e2fa"
         stop-opacity=".335"
         id="stop250" />
      <stop
         offset=".857"
         stop-color="#9fc1f9"
         stop-opacity=".81"
         id="stop252" />
      <stop
         offset="1"
         stop-color="#8ab4f8"
         id="stop254" />
    </linearGradient>
    <linearGradient
       id="d"
       x1="251.856"
       y1="75.073"
       x2="267.109"
       y2="75.073"
       xlink:href="#a" />
    <linearGradient
       id="e"
       x1="68.431"
       y1="50.001"
       x2="75.403"
       y2="67.545"
       gradientUnits="userSpaceOnUse"
       gradientTransform="translate(234.75783,73.557455)">
      <stop
         offset=".021"
         stop-color="#ffcb72"
         id="stop258" />
      <stop
         offset="1"
         stop-color="#ffe286"
         id="stop260" />
    </linearGradient>
    <linearGradient
       id="f"
       x1="126.363"
       y1="56.042"
       x2="141.615"
       y2="56.042"
       xlink:href="#a" />
    <linearGradient
       id="g"
       x1="312.321"
       y1="52.03"
       x2="323.348"
       y2="52.03"
       xlink:href="#a"
       gradientTransform="translate(25.823362,53.994302)" />
    <linearGradient
       id="h"
       x1="149.328"
       y1="134.831"
       x2="116.424"
       y2="157.66"
       gradientUnits="userSpaceOnUse"
       gradientTransform="matrix(-1,0,0,1,466.48621,-2.3475783)">
      <stop
         offset="0"
         stop-color="#aecbfa"
         id="stop265" />
      <stop
         offset=".198"
         stop-color="#aac9fa"
         id="stop267" />
      <stop
         offset=".383"
         stop-color="#9fc1f9"
         id="stop269" />
      <stop
         offset=".564"
         stop-color="#8cb5f8"
         id="stop271" />
      <stop
         offset=".742"
         stop-color="#71a4f7"
         id="stop273" />
      <stop
         offset=".916"
         stop-color="#4f8ef5"
         id="stop275" />
      <stop
         offset=".975"
         stop-color="#4285f4"
         id="stop277" />
    </linearGradient>
    <linearGradient
       id="i"
       x1="-2854.058"
       y1="891.817"
       x2="-2888.838"
       y2="915.947"
       gradientTransform="matrix(-0.70510466,0.70910325,0.70910325,0.70510466,-2591.8762,1532.1402)"
       gradientUnits="userSpaceOnUse">
      <stop
         offset="0"
         stop-color="#aecbfa"
         id="stop280" />
      <stop
         offset=".257"
         stop-color="#abc9fa"
         id="stop282" />
      <stop
         offset=".435"
         stop-color="#a2c3f9"
         id="stop284" />
      <stop
         offset=".59"
         stop-color="#93b9f8"
         id="stop286" />
      <stop
         offset=".731"
         stop-color="#7dabf7"
         id="stop288" />
      <stop
         offset=".862"
         stop-color="#6199f6"
         id="stop290" />
      <stop
         offset=".975"
         stop-color="#4285f4"
         id="stop292" />
    </linearGradient>
    <linearGradient
       id="j"
       x1="138.365"
       y1="119.795"
       x2="138.365"
       y2="101.296"
       gradientUnits="userSpaceOnUse"
       gradientTransform="matrix(-1,0,0,1,239.9449,-1.5650522)">
      <stop
         offset=".025"
         stop-color="#4285f4"
         id="stop295" />
      <stop
         offset=".112"
         stop-color="#639af6"
         id="stop297" />
      <stop
         offset=".223"
         stop-color="#85b1f8"
         id="stop299" />
      <stop
         offset=".342"
         stop-color="#a1c3f9"
         id="stop301" />
      <stop
         offset=".469"
         stop-color="#b7d1fa"
         id="stop303" />
      <stop
         offset=".608"
         stop-color="#c6dbfb"
         id="stop305" />
      <stop
         offset=".769"
         stop-color="#cfe1fc"
         id="stop307" />
      <stop
         offset="1"
         stop-color="#d2e3fc"
         id="stop309" />
    </linearGradient>
  </defs>
  <g
     style="isolation:isolate"
     id="g394">
    <path
       fill="url(#b)"
       d="M281.041 81.869l-25.734 35.973h-70.566l-25.938-35.973h122.238z"
       id="path314" />
    <path
       d="M238.216 121.9a14.744 14.744 0 01-19.732-6.609 15.057 15.057 0 01-.792-1.943 14.689 14.689 0 015.708-16.792 14.977 14.977 0 011.692-1 14.715 14.715 0 1113.124 26.344z"
       fill="#ffe386"
       id="path316" />
    <circle
       cx="231.65"
       cy="108.729"
       r="10.791"
       fill="url(#a)"
       id="circle318" />
    <path
       d="M259.485 112.257V164.9a4.554 4.554 0 01-4.554 4.555h-69.516a4.554 4.554 0 01-4.554-4.555v-52.643z"
       fill="#f1f3f4"
       id="path320" />
    <path
       fill="#e8f0fe"
       d="M220.065 112.257h11.182v57.2h-11.182z"
       id="path322" />
    <path
       d="m 176.34752,31.495898 11.55229,-9.265151 a 8.783,8.783 0 0 1 5.95931,-1.921822 8.788,8.788 0 0 1 8.31032,9.2401 l -0.17446,3.302177 z m 0,0 -10.50578,-10.431442 a 8.79,8.79 0 0 0 -5.72648,-2.539459 8.788,8.788 0 0 0 -9.23836,8.311322 l -0.17396,3.301311 z"
       fill="#7198cf"
       id="path324" />
    <path
       fill="#ffffff"
       d="m 172.8528,34.073429 10.747,-5.468 5.024,9.873 -10.747,5.468 z"
       id="path326" />
    <path
       d="m 280.5229,23.160861 -21.42103,7.243613 -56.99989,19.187688 -2.24667,-6.663112 a 4.1,4.1 45 0 1 2.57684,-5.194425 l 62.81673,-21.147519 7.84106,-2.645806 a 4.088,4.088 0 0 1 5.18472,2.560263 z"
       fill="#e8eaed"
       id="path328" />
    <path
       d="m 214.29091,33.740678 -11.86272,3.99337 a 4.1,4.1 45 0 0 -2.57684,5.194425 l 2.24667,6.663111 16.06177,-5.407018 z"
       fill="#dadce0"
       id="path330" />
    <path
       fill="#80a2d4"
       d="m 170.5778,29.220429 10.326,-5.264 2.435,4.777 -10.326,5.265 z"
       id="path332" />
    <path
       d="M197.257 112.257v57.2h-11.842a4.554 4.554 0 01-4.554-4.555v-52.645z"
       fill="#dadce0"
       id="path334" />
    <path
       fill="#e8f0fe"
       d="m 170.50443,31.190427 11.57545,0.604743 -0.57873,11.082393 -11.57458,-0.604242 z"
       id="path336" />
    <path
       d="M180.861 112.255v24.912s23.127-18.44 78.619-18.44v-6.472z"
       fill="url(#c)"
       style="mix-blend-mode:multiply"
       id="path338" />
    <path
       d="M264.122 84.382a10.419 10.419 0 01-13.944-4.67 10.589 10.589 0 01-.56-1.374 10.379 10.379 0 014.035-11.867 10.576 10.576 0 011.2-.7 10.4 10.4 0 119.274 18.615z"
       fill="#ffe386"
       id="path340" />
    <circle
       cx="259.482"
       cy="75.073"
       r="7.626"
       fill="url(#d)"
       id="circle342" />
    <path
       d="m 252.10942,130.24083 a 4.958,4.958 0 0 0 -1.78,-1.034 l -0.589,-0.2 a 4.232,4.232 0 0 1 -1.253,-0.621 1.05,1.05 0 0 1 -0.414,-0.858 1.2,1.2 0 0 1 0.489,-0.979 1.84,1.84 0 0 1 1.178,-0.387 1.753,1.753 0 0 1 1.755,1.215 l 0.991,-0.426 a 2.637,2.637 0 0 0 -0.484,-0.815 2.808,2.808 0 0 0 -0.921,-0.7 2.744,2.744 0 0 0 -0.924,-0.262 v -1.097 h -0.908 v 1.106 a 2.855,2.855 0 0 0 -0.925,0.289 2.5,2.5 0 0 0 -0.978,0.871 2.145,2.145 0 0 0 -0.351,1.185 1.972,1.972 0 0 0 0.6,1.529 4.478,4.478 0 0 0 1.554,0.889 l 0.564,0.2 a 4.445,4.445 0 0 1 1.5,0.759 1.323,1.323 0 0 1 0.458,1.033 1.377,1.377 0 0 1 -0.54,1.148 2.079,2.079 0 0 1 -1.316,0.419 1.965,1.965 0 0 1 -1.353,-0.514 2.6,2.6 0 0 1 -0.79,-1.316 l -1.015,0.414 a 3.217,3.217 0 0 0 0.7,1.322 3.287,3.287 0 0 0 1.122,0.827 3.2,3.2 0 0 0 0.768,0.232 v 1.14 h 0.908 v -1.107 a 3.735,3.735 0 0 0 1.025,-0.257 2.612,2.612 0 0 0 1.121,-0.865 2.343,2.343 0 0 0 0.446,-1.454 2.239,2.239 0 0 0 -0.638,-1.686 z"
       fill="#f29900"
       id="path344" />
    <path
       d="M279.324 48.447l-.754-6.1a1.869 1.869 0 01.728-1.72l4.908-3.7a1.867 1.867 0 011.853-.229l5.663 2.4a1.868 1.868 0 011.125 1.49l.754 6.1a1.866 1.866 0 01-.728 1.719l-4.908 3.7a1.867 1.867 0 01-1.853.229l-5.663-2.4a1.868 1.868 0 01-1.125-1.489z"
       fill="#cee3ff"
       id="path346" />
    <path
       d="M102.684 77.044l.592-4.792a1.465 1.465 0 00-.576-1.352l-3.853-2.909a1.468 1.468 0 00-1.455-.18L92.951 69.7a1.466 1.466 0 00-.884 1.17l-.592 4.792a1.465 1.465 0 00.572 1.349l3.853 2.906a1.468 1.468 0 001.455.18l4.446-1.883a1.465 1.465 0 00.883-1.17z"
       fill="#6acc90"
       id="path348" />
    <path
       d="m 298.59683,137.33645 -0.975,-7.9 a 1.738,1.738 0 0 1 0.679,-1.6 l 6.349,-4.793 a 1.744,1.744 0 0 1 1.729,-0.214 l 7.325,3.1 a 1.74,1.74 0 0 1 1.054,1.395 l 0.976,7.895 a 1.744,1.744 0 0 1 -0.679,1.6 l -6.35,4.792 a 1.742,1.742 0 0 1 -1.728,0.214 l -7.325,-3.1 a 1.742,1.742 0 0 1 -1.055,-1.389 z"
       fill="url(#e)"
       id="path350"
       style="fill:url(#e)" />
    <rect
       x="100.845"
       y="38.703"
       width="8.198"
       height="8.198"
       rx="1.031"
       transform="rotate(45 104.944 42.802)"
       fill="#7fb4fe"
       id="rect352" />
    <path
       d="M348.538 67l-4.992 2.548a.593.593 0 01-.59-.031l-4.7-3.049a.593.593 0 01-.269-.526l.29-5.6a.591.591 0 01.321-.5l4.992-2.548a.593.593 0 01.59.031l4.7 3.05a.589.589 0 01.269.525l-.29 5.6a.591.591 0 01-.321.5z"
       fill="#f28b82"
       id="path354" />
    <rect
       x="275.84659"
       y="-143.67358"
       width="9.7390003"
       height="9.7390003"
       rx="0.65799999"
       transform="rotate(45)"
       fill="#6acc90"
       id="rect356" />
    <path
       d="M138.629 65.351a10.419 10.419 0 01-13.944-4.671 10.576 10.576 0 01-.56-1.373 10.381 10.381 0 014.035-11.868 10.721 10.721 0 011.195-.7 10.4 10.4 0 119.274 18.615z"
       fill="#ffe386"
       id="path358" />
    <circle
       cx="133.989"
       cy="56.042"
       r="7.626"
       fill="url(#f)"
       id="circle360" />
    <path
       d="m 288.21007,44.695108 a 4.973,4.973 0 0 0 -1.78,-1.035 l -0.589,-0.2 a 4.2,4.2 0 0 1 -1.253,-0.62 1.051,1.051 0 0 1 -0.414,-0.859 1.2,1.2 0 0 1 0.488,-0.978 1.846,1.846 0 0 1 1.179,-0.388 1.756,1.756 0 0 1 1.755,1.215 l 0.991,-0.425 a 2.626,2.626 0 0 0 -0.484,-0.815 2.808,2.808 0 0 0 -0.921,-0.7 2.75,2.75 0 0 0 -0.924,-0.262 v -1.097 h -0.908 v 1.106 a 2.855,2.855 0 0 0 -0.925,0.289 2.5,2.5 0 0 0 -0.978,0.871 2.144,2.144 0 0 0 -0.351,1.184 1.972,1.972 0 0 0 0.6,1.529 4.484,4.484 0 0 0 1.555,0.89 l 0.564,0.2 a 4.408,4.408 0 0 1 1.5,0.759 1.322,1.322 0 0 1 0.457,1.033 1.376,1.376 0 0 1 -0.539,1.148 2.081,2.081 0 0 1 -1.316,0.419 1.97,1.97 0 0 1 -1.353,-0.514 2.609,2.609 0 0 1 -0.79,-1.316 l -1.015,0.414 a 3.206,3.206 0 0 0 0.7,1.322 3.287,3.287 0 0 0 1.122,0.827 3.245,3.245 0 0 0 0.768,0.232 v 1.138 h 0.908 v -1.1 a 3.7,3.7 0 0 0 1.025,-0.258 2.6,2.6 0 0 0 1.121,-0.865 2.338,2.338 0 0 0 0.446,-1.453 2.239,2.239 0 0 0 -0.639,-1.691 z"
       fill="#f29900"
       id="path362" />
    <path
       d="m 347.01236,112.7553 a 7.537,7.537 0 0 1 -10.082,-3.377 7.685,7.685 0 0 1 -0.4,-0.993 7.5,7.5 0 0 1 2.917,-8.580998 7.608,7.608 0 0 1 0.864,-0.508 7.5183393,7.5183393 0 1 1 6.705,13.458998 z"
       fill="#ffe386"
       id="path364" />
    <circle
       cx="343.65738"
       cy="106.0243"
       r="5.5139999"
       fill="url(#g)"
       id="circle366"
       style="fill:url(#g)" />
    <path
       d="m 93.974896,161.25695 -2.677,1.772 c -0.519,0.364 -0.492,1.307 0.041,1.44 l 7.413,1.853 c 0.31,0.078 0.644,-0.194 0.747,-0.606 l 0.725004,-2.9 z"
       fill="#4285f4"
       id="path368" />
    <path
       d="m 331.38621,163.28542 4.719,-18.644 a 9.618,9.618 0 0 1 1.377,-3.061 l 9.63,-14.16 -9.5,-6.463 -9.631,14.16 a 21.1,21.1 0 0 0 -3.015,6.7 l -4.719,18.644 z"
       fill="url(#h)"
       id="path370"
       style="fill:url(#h)" />
    <path
       d="m 132.5919,163.44995 -0.667,3.327 c -0.114,0.66 0.613,1.342 1.11,1.042 l 6.91,-4.175 a -0.734,0.734 0 0 0 0.1,-1.012 l -1.632,-2.7 z"
       fill="#4285f4"
       id="path372" />
    <path
       d="m 86.615913,149.44585 -10.457,-17.433 a 10.184,10.184 0 0 1 -1.268,-3.313 l -3.435,-17.771 -11.927,2.3 3.436,17.772 a 22.272,22.272 0 0 0 2.777,7.256 l 10.457,17.433 z"
       fill="url(#i)"
       id="path374"
       style="fill:url(#i)" />
    <path
       d="m 138.41489,104.8301 a 6.491,6.491 0 0 1 8.615,4.74 2.494,2.494 0 0 0 1.611,1.843 8.435,8.435 0 0 1 5.565,6.536 2.527,2.527 0 0 0 1.507,1.91 8.429,8.429 0 0 1 5.13,7.37 2.4,2.4 0 0 0 1.504,2.135 9.924,9.924 0 1 1 -13.49,9.631 9.658,9.658 0 0 1 0.095,-1.767 2.419,2.419 0 0 0 -1.078,-2.406 8.474,8.474 0 0 1 -3.84,-5.73 2.45,2.45 0 0 0 -1.46,-1.869 8.466,8.466 0 0 1 -5.108,-8.962 2.521,2.521 0 0 0 -0.888,-2.324 6.424,6.424 0 0 1 -1.693,-2.1 6.491,6.491 0 0 1 3.53,-9.007 z"
       fill="#4285f4"
       id="path376" />
    <path
       d="m 117.4989,105.69395 -1.517,-1.594 a -7.334,7.334 0 0 1 -2.023,-5.058002 v -2.893 a -19.264,19.264 0 0 0 6.694,1.278 l 1.474,7.466002 -4.628,0.8"
       fill="#d2e3fc"
       id="path378" />
    <path
       d="m 118.0029,100.06395 a -1.31,1.31 0 0 1 -2.619,0 z"
       fill="#4285f4"
       id="path380" />
    <path
       d="m 116.7249,111.70395 c 0,0 -14.158,5.341 -30.290004,-7.834 l 3.418,-6.154002 a -33.436,33.436 0 0 0 24.106004,7.311002 z"
       fill="url(#j)"
       id="path382"
       style="fill:url(#j)" />
    <rect
       x="-177.38063"
       y="94.662994"
       width="7.8039999"
       height="13.853"
       rx="0.70099998"
       transform="matrix(-0.98586183,0.1675603,0.1675603,0.98586183,0,0)"
       fill="#80868b"
       id="rect384" />
    <path
       fill="#dadce0"
       d="m 186.18124,76.839588 5.529,-0.94 -1.798,-10.572002 -5.528,0.94 z"
       id="path386" />
    <path
       d="m 138.4129,159.93195 h 14.776 l 2.012,-19.675 -13.232,0.194 -0.825,1.421 a 20.208,20.208 0 0 0 -2.731,10.145 z"
       fill="#e8f0fe"
       id="path388" />
    <path
       d="m 85.426753,137.79305 c -6.311,2.52 -20.06,6.76 -33.388004,2.578 l 0.806,-6.355 c 0,0 16.042004,2.838 29.612004,-3.972 2.071,-1.039 4.579,0.361 5.316,2.557 l 0.021,0.064 a 4.11,4.11 0 0 1 -2.367,5.128 z"
       fill="#d2e3fc"
       id="path390" />
    <path
       fill="#4285f4"
       d="m 94.543896,109.89495 1.954,0.52 -2.066,0.366 z"
       id="path392" />
  </g>
</svg>
